<mxfile host="app.diagrams.net" modified="2021-06-27T13:38:47.830Z" agent="5.0 (Windows NT 10.0; Win64; x64) AppleWebKit/537.36 (KHTML, like Gecko) Chrome/91.0.4472.114 Safari/537.36" etag="JUH_W0nlSpoKQM4xL2yL" version="14.8.1" type="github">
  <diagram id="tkxKp8J2t2rPwIGBLr0_" name="Page-1">
    <mxGraphModel dx="1422" dy="794" grid="1" gridSize="20" guides="1" tooltips="1" connect="1" arrows="1" fold="1" page="1" pageScale="1" pageWidth="20000" pageHeight="20000" math="0" shadow="0">
      <root>
        <mxCell id="0" />
        <mxCell id="1" parent="0" />
        <mxCell id="A2gcQvPjMNt2DV7McKa0-1" value="&lt;font style=&quot;font-size: 20px&quot;&gt;App&lt;/font&gt;" style="rounded=0;whiteSpace=wrap;html=1;" parent="1" vertex="1">
          <mxGeometry x="558" y="80" width="120" height="40" as="geometry" />
        </mxCell>
        <mxCell id="A2gcQvPjMNt2DV7McKa0-3" value="" style="endArrow=classic;html=1;exitX=0.333;exitY=1.05;exitDx=0;exitDy=0;exitPerimeter=0;entryX=0.5;entryY=0;entryDx=0;entryDy=0;" parent="1" source="A2gcQvPjMNt2DV7McKa0-1" target="A2gcQvPjMNt2DV7McKa0-4" edge="1">
          <mxGeometry width="50" height="50" relative="1" as="geometry">
            <mxPoint x="588" y="330" as="sourcePoint" />
            <mxPoint x="508" y="160" as="targetPoint" />
          </mxGeometry>
        </mxCell>
        <mxCell id="A2gcQvPjMNt2DV7McKa0-4" value="Header" style="rounded=0;whiteSpace=wrap;html=1;" parent="1" vertex="1">
          <mxGeometry x="398" y="160" width="120" height="40" as="geometry" />
        </mxCell>
        <mxCell id="A2gcQvPjMNt2DV7McKa0-5" value="Body" style="rounded=0;whiteSpace=wrap;html=1;" parent="1" vertex="1">
          <mxGeometry x="800" y="160" width="120" height="40" as="geometry" />
        </mxCell>
        <mxCell id="A2gcQvPjMNt2DV7McKa0-6" value="" style="endArrow=classic;html=1;exitX=0.75;exitY=1;exitDx=0;exitDy=0;entryX=0.5;entryY=0;entryDx=0;entryDy=0;" parent="1" source="A2gcQvPjMNt2DV7McKa0-1" target="A2gcQvPjMNt2DV7McKa0-5" edge="1">
          <mxGeometry width="50" height="50" relative="1" as="geometry">
            <mxPoint x="578" y="330" as="sourcePoint" />
            <mxPoint x="628" y="280" as="targetPoint" />
          </mxGeometry>
        </mxCell>
        <mxCell id="A2gcQvPjMNt2DV7McKa0-7" value="" style="endArrow=classic;html=1;exitX=0.25;exitY=1;exitDx=0;exitDy=0;entryX=0.5;entryY=0;entryDx=0;entryDy=0;" parent="1" source="A2gcQvPjMNt2DV7McKa0-5" target="A2gcQvPjMNt2DV7McKa0-8" edge="1">
          <mxGeometry width="50" height="50" relative="1" as="geometry">
            <mxPoint x="578" y="330" as="sourcePoint" />
            <mxPoint x="418" y="260" as="targetPoint" />
          </mxGeometry>
        </mxCell>
        <mxCell id="A2gcQvPjMNt2DV7McKa0-8" value="Navigation" style="rounded=0;whiteSpace=wrap;html=1;" parent="1" vertex="1">
          <mxGeometry x="160" y="240" width="140" height="40" as="geometry" />
        </mxCell>
        <mxCell id="A2gcQvPjMNt2DV7McKa0-10" value="" style="endArrow=classic;html=1;exitX=0.75;exitY=1;exitDx=0;exitDy=0;entryX=0.5;entryY=0;entryDx=0;entryDy=0;" parent="1" source="A2gcQvPjMNt2DV7McKa0-5" target="A2gcQvPjMNt2DV7McKa0-11" edge="1">
          <mxGeometry width="50" height="50" relative="1" as="geometry">
            <mxPoint x="380" y="330" as="sourcePoint" />
            <mxPoint x="730" y="240" as="targetPoint" />
          </mxGeometry>
        </mxCell>
        <mxCell id="A2gcQvPjMNt2DV7McKa0-11" value="Base" style="shape=hexagon;perimeter=hexagonPerimeter2;whiteSpace=wrap;html=1;fixedSize=1;" parent="1" vertex="1">
          <mxGeometry x="981" y="240" width="140" height="40" as="geometry" />
        </mxCell>
        <mxCell id="A2gcQvPjMNt2DV7McKa0-45" style="edgeStyle=none;rounded=0;orthogonalLoop=1;jettySize=auto;html=1;exitX=0.75;exitY=1;exitDx=0;exitDy=0;entryX=0.5;entryY=0;entryDx=0;entryDy=0;" parent="1" source="A2gcQvPjMNt2DV7McKa0-13" target="A2gcQvPjMNt2DV7McKa0-44" edge="1">
          <mxGeometry relative="1" as="geometry" />
        </mxCell>
        <mxCell id="A2gcQvPjMNt2DV7McKa0-13" value="Profile" style="rounded=0;whiteSpace=wrap;html=1;" parent="1" vertex="1">
          <mxGeometry x="701" y="320" width="120" height="40" as="geometry" />
        </mxCell>
        <mxCell id="A2gcQvPjMNt2DV7McKa0-64" style="edgeStyle=none;rounded=0;orthogonalLoop=1;jettySize=auto;html=1;exitX=0.25;exitY=1;exitDx=0;exitDy=0;entryX=0.5;entryY=0;entryDx=0;entryDy=0;" parent="1" source="A2gcQvPjMNt2DV7McKa0-14" target="A2gcQvPjMNt2DV7McKa0-59" edge="1">
          <mxGeometry relative="1" as="geometry" />
        </mxCell>
        <mxCell id="A2gcQvPjMNt2DV7McKa0-70" style="edgeStyle=none;rounded=0;orthogonalLoop=1;jettySize=auto;html=1;exitX=0.5;exitY=1;exitDx=0;exitDy=0;entryX=0.5;entryY=0;entryDx=0;entryDy=0;" parent="1" source="A2gcQvPjMNt2DV7McKa0-14" target="A2gcQvPjMNt2DV7McKa0-65" edge="1">
          <mxGeometry relative="1" as="geometry" />
        </mxCell>
        <mxCell id="A2gcQvPjMNt2DV7McKa0-72" style="edgeStyle=none;rounded=0;orthogonalLoop=1;jettySize=auto;html=1;exitX=0.75;exitY=1;exitDx=0;exitDy=0;entryX=0.5;entryY=0;entryDx=0;entryDy=0;" parent="1" source="A2gcQvPjMNt2DV7McKa0-14" target="A2gcQvPjMNt2DV7McKa0-71" edge="1">
          <mxGeometry relative="1" as="geometry" />
        </mxCell>
        <mxCell id="A2gcQvPjMNt2DV7McKa0-14" value="&lt;span style=&quot;background-color: rgb(255 , 255 , 255)&quot;&gt;Dialogs&lt;/span&gt;" style="rounded=0;whiteSpace=wrap;html=1;" parent="1" vertex="1">
          <mxGeometry x="900" y="320" width="120" height="40" as="geometry" />
        </mxCell>
        <mxCell id="A2gcQvPjMNt2DV7McKa0-15" value="News" style="rounded=0;whiteSpace=wrap;html=1;" parent="1" vertex="1">
          <mxGeometry x="1520" y="320" width="120" height="40" as="geometry" />
        </mxCell>
        <mxCell id="A2gcQvPjMNt2DV7McKa0-16" value="Settings" style="rounded=0;whiteSpace=wrap;html=1;" parent="1" vertex="1">
          <mxGeometry x="1720" y="320" width="120" height="40" as="geometry" />
        </mxCell>
        <mxCell id="A2gcQvPjMNt2DV7McKa0-17" value="Login" style="rounded=0;whiteSpace=wrap;html=1;" parent="1" vertex="1">
          <mxGeometry x="1960" y="320" width="120" height="40" as="geometry" />
        </mxCell>
        <mxCell id="A2gcQvPjMNt2DV7McKa0-19" value="" style="curved=1;endArrow=classic;html=1;entryX=0.5;entryY=0;entryDx=0;entryDy=0;exitX=0;exitY=0.5;exitDx=0;exitDy=0;" parent="1" source="A2gcQvPjMNt2DV7McKa0-11" target="A2gcQvPjMNt2DV7McKa0-13" edge="1">
          <mxGeometry width="50" height="50" relative="1" as="geometry">
            <mxPoint x="981" y="330" as="sourcePoint" />
            <mxPoint x="1031" y="280" as="targetPoint" />
            <Array as="points">
              <mxPoint x="960" y="260" />
              <mxPoint x="901" y="280" />
            </Array>
          </mxGeometry>
        </mxCell>
        <mxCell id="A2gcQvPjMNt2DV7McKa0-21" value="" style="curved=1;endArrow=classic;html=1;entryX=0.5;entryY=0;entryDx=0;entryDy=0;exitX=0.286;exitY=1;exitDx=0;exitDy=0;exitPerimeter=0;" parent="1" source="A2gcQvPjMNt2DV7McKa0-11" target="A2gcQvPjMNt2DV7McKa0-14" edge="1">
          <mxGeometry width="50" height="50" relative="1" as="geometry">
            <mxPoint x="1001" y="280" as="sourcePoint" />
            <mxPoint x="901" y="320" as="targetPoint" />
            <Array as="points">
              <mxPoint x="1001" y="280" />
            </Array>
          </mxGeometry>
        </mxCell>
        <mxCell id="A2gcQvPjMNt2DV7McKa0-23" value="" style="curved=1;endArrow=classic;html=1;entryX=0.5;entryY=0;entryDx=0;entryDy=0;" parent="1" target="A2gcQvPjMNt2DV7McKa0-15" edge="1">
          <mxGeometry width="50" height="50" relative="1" as="geometry">
            <mxPoint x="1044" y="280" as="sourcePoint" />
            <mxPoint x="1031" y="280" as="targetPoint" />
            <Array as="points">
              <mxPoint x="1121" y="280" />
            </Array>
          </mxGeometry>
        </mxCell>
        <mxCell id="A2gcQvPjMNt2DV7McKa0-24" value="" style="curved=1;endArrow=classic;html=1;entryX=0.5;entryY=0;entryDx=0;entryDy=0;exitX=1;exitY=0.75;exitDx=0;exitDy=0;" parent="1" source="A2gcQvPjMNt2DV7McKa0-11" target="A2gcQvPjMNt2DV7McKa0-16" edge="1">
          <mxGeometry width="50" height="50" relative="1" as="geometry">
            <mxPoint x="1221" y="260" as="sourcePoint" />
            <mxPoint x="1321" y="280" as="targetPoint" />
            <Array as="points">
              <mxPoint x="1241" y="269" />
            </Array>
          </mxGeometry>
        </mxCell>
        <mxCell id="A2gcQvPjMNt2DV7McKa0-25" value="" style="curved=1;endArrow=classic;html=1;entryX=0.5;entryY=0;entryDx=0;entryDy=0;exitX=1;exitY=0.75;exitDx=0;exitDy=0;" parent="1" target="A2gcQvPjMNt2DV7McKa0-17" edge="1">
          <mxGeometry width="50" height="50" relative="1" as="geometry">
            <mxPoint x="1121" y="260" as="sourcePoint" />
            <mxPoint x="1309.75" y="291.25" as="targetPoint" />
            <Array as="points">
              <mxPoint x="1249.75" y="260.25" />
            </Array>
          </mxGeometry>
        </mxCell>
        <mxCell id="A2gcQvPjMNt2DV7McKa0-26" value="" style="endArrow=classic;html=1;exitX=0.5;exitY=1;exitDx=0;exitDy=0;entryX=0.5;entryY=0;entryDx=0;entryDy=0;" parent="1" source="A2gcQvPjMNt2DV7McKa0-8" target="A2gcQvPjMNt2DV7McKa0-28" edge="1">
          <mxGeometry width="50" height="50" relative="1" as="geometry">
            <mxPoint x="981" y="430" as="sourcePoint" />
            <mxPoint x="480" y="320" as="targetPoint" />
          </mxGeometry>
        </mxCell>
        <mxCell id="A2gcQvPjMNt2DV7McKa0-28" value="NavigationItemContainer" style="swimlane;" parent="1" vertex="1">
          <mxGeometry x="40" y="320" width="238" height="100" as="geometry" />
        </mxCell>
        <mxCell id="A2gcQvPjMNt2DV7McKa0-46" value="" style="rounded=0;whiteSpace=wrap;html=1;" parent="A2gcQvPjMNt2DV7McKa0-28" vertex="1">
          <mxGeometry x="19" y="40" width="140" height="40" as="geometry" />
        </mxCell>
        <mxCell id="A2gcQvPjMNt2DV7McKa0-47" value="" style="rounded=0;whiteSpace=wrap;html=1;" parent="A2gcQvPjMNt2DV7McKa0-28" vertex="1">
          <mxGeometry x="39" y="40" width="140" height="40" as="geometry" />
        </mxCell>
        <mxCell id="A2gcQvPjMNt2DV7McKa0-48" value="" style="rounded=0;whiteSpace=wrap;html=1;" parent="A2gcQvPjMNt2DV7McKa0-28" vertex="1">
          <mxGeometry x="61" y="40" width="140" height="40" as="geometry" />
        </mxCell>
        <mxCell id="A2gcQvPjMNt2DV7McKa0-49" value="NavigationItem" style="rounded=0;whiteSpace=wrap;html=1;" parent="A2gcQvPjMNt2DV7McKa0-28" vertex="1">
          <mxGeometry x="80" y="40" width="140" height="40" as="geometry" />
        </mxCell>
        <mxCell id="A2gcQvPjMNt2DV7McKa0-43" style="edgeStyle=none;rounded=0;orthogonalLoop=1;jettySize=auto;html=1;exitX=0.5;exitY=1;exitDx=0;exitDy=0;entryX=0.5;entryY=0;entryDx=0;entryDy=0;" parent="1" source="A2gcQvPjMNt2DV7McKa0-32" target="A2gcQvPjMNt2DV7McKa0-36" edge="1">
          <mxGeometry relative="1" as="geometry" />
        </mxCell>
        <mxCell id="A2gcQvPjMNt2DV7McKa0-31" value="ProfileInfoContainer" style="swimlane;" parent="1" vertex="1">
          <mxGeometry x="378" y="400" width="180" height="100" as="geometry" />
        </mxCell>
        <mxCell id="A2gcQvPjMNt2DV7McKa0-32" value="ProfileInfo" style="rounded=0;whiteSpace=wrap;html=1;" parent="A2gcQvPjMNt2DV7McKa0-31" vertex="1">
          <mxGeometry x="20" y="40" width="140" height="40" as="geometry" />
        </mxCell>
        <mxCell id="A2gcQvPjMNt2DV7McKa0-35" value="" style="endArrow=classic;html=1;entryX=0.5;entryY=0;entryDx=0;entryDy=0;exitX=0.25;exitY=1;exitDx=0;exitDy=0;" parent="1" source="A2gcQvPjMNt2DV7McKa0-13" target="A2gcQvPjMNt2DV7McKa0-31" edge="1">
          <mxGeometry width="50" height="50" relative="1" as="geometry">
            <mxPoint x="981" y="430" as="sourcePoint" />
            <mxPoint x="1031" y="380" as="targetPoint" />
          </mxGeometry>
        </mxCell>
        <mxCell id="A2gcQvPjMNt2DV7McKa0-36" value="ProfileStatContainer" style="swimlane;" parent="1" vertex="1">
          <mxGeometry x="180" y="540" width="240" height="100" as="geometry">
            <mxRectangle x="200" y="520" width="160" height="23" as="alternateBounds" />
          </mxGeometry>
        </mxCell>
        <mxCell id="A2gcQvPjMNt2DV7McKa0-39" value="" style="rounded=0;whiteSpace=wrap;html=1;" parent="A2gcQvPjMNt2DV7McKa0-36" vertex="1">
          <mxGeometry x="20" y="40" width="140" height="40" as="geometry" />
        </mxCell>
        <mxCell id="A2gcQvPjMNt2DV7McKa0-40" value="" style="rounded=0;whiteSpace=wrap;html=1;" parent="A2gcQvPjMNt2DV7McKa0-36" vertex="1">
          <mxGeometry x="38" y="40" width="140" height="40" as="geometry" />
        </mxCell>
        <mxCell id="A2gcQvPjMNt2DV7McKa0-41" value="" style="rounded=0;whiteSpace=wrap;html=1;" parent="A2gcQvPjMNt2DV7McKa0-36" vertex="1">
          <mxGeometry x="58" y="40" width="140" height="40" as="geometry" />
        </mxCell>
        <mxCell id="A2gcQvPjMNt2DV7McKa0-37" value="ProfileStat" style="rounded=0;whiteSpace=wrap;html=1;" parent="A2gcQvPjMNt2DV7McKa0-36" vertex="1">
          <mxGeometry x="78" y="40" width="140" height="40" as="geometry" />
        </mxCell>
        <mxCell id="A2gcQvPjMNt2DV7McKa0-51" style="edgeStyle=none;rounded=0;orthogonalLoop=1;jettySize=auto;html=1;exitX=0.25;exitY=1;exitDx=0;exitDy=0;entryX=0.5;entryY=0;entryDx=0;entryDy=0;" parent="1" source="A2gcQvPjMNt2DV7McKa0-44" target="A2gcQvPjMNt2DV7McKa0-50" edge="1">
          <mxGeometry relative="1" as="geometry" />
        </mxCell>
        <mxCell id="A2gcQvPjMNt2DV7McKa0-57" style="edgeStyle=none;rounded=0;orthogonalLoop=1;jettySize=auto;html=1;exitX=0.75;exitY=1;exitDx=0;exitDy=0;entryX=0.5;entryY=0;entryDx=0;entryDy=0;" parent="1" source="A2gcQvPjMNt2DV7McKa0-44" target="A2gcQvPjMNt2DV7McKa0-52" edge="1">
          <mxGeometry relative="1" as="geometry" />
        </mxCell>
        <mxCell id="A2gcQvPjMNt2DV7McKa0-44" value="PostWrapper" style="rounded=0;whiteSpace=wrap;html=1;" parent="1" vertex="1">
          <mxGeometry x="580" y="400" width="140" height="40" as="geometry" />
        </mxCell>
        <mxCell id="A2gcQvPjMNt2DV7McKa0-50" value="TextCreator" style="rounded=0;whiteSpace=wrap;html=1;fillColor=#E8FF1C;" parent="1" vertex="1">
          <mxGeometry x="500" y="540" width="140" height="40" as="geometry" />
        </mxCell>
        <mxCell id="A2gcQvPjMNt2DV7McKa0-52" value="PostContainer" style="swimlane;" parent="1" vertex="1">
          <mxGeometry x="658" y="540" width="242" height="100" as="geometry" />
        </mxCell>
        <mxCell id="A2gcQvPjMNt2DV7McKa0-53" value="" style="rounded=0;whiteSpace=wrap;html=1;" parent="A2gcQvPjMNt2DV7McKa0-52" vertex="1">
          <mxGeometry x="22" y="40" width="140" height="40" as="geometry" />
        </mxCell>
        <mxCell id="A2gcQvPjMNt2DV7McKa0-54" value="" style="rounded=0;whiteSpace=wrap;html=1;" parent="A2gcQvPjMNt2DV7McKa0-52" vertex="1">
          <mxGeometry x="40" y="40" width="140" height="40" as="geometry" />
        </mxCell>
        <mxCell id="A2gcQvPjMNt2DV7McKa0-55" value="" style="rounded=0;whiteSpace=wrap;html=1;" parent="A2gcQvPjMNt2DV7McKa0-52" vertex="1">
          <mxGeometry x="60" y="40" width="140" height="40" as="geometry" />
        </mxCell>
        <mxCell id="A2gcQvPjMNt2DV7McKa0-56" value="Post" style="rounded=0;whiteSpace=wrap;html=1;" parent="A2gcQvPjMNt2DV7McKa0-52" vertex="1">
          <mxGeometry x="80" y="40" width="140" height="40" as="geometry" />
        </mxCell>
        <mxCell id="A2gcQvPjMNt2DV7McKa0-59" value="DialogsItemContainer" style="swimlane;" parent="1" vertex="1">
          <mxGeometry x="760" y="400" width="242" height="100" as="geometry" />
        </mxCell>
        <mxCell id="A2gcQvPjMNt2DV7McKa0-60" value="" style="rounded=0;whiteSpace=wrap;html=1;" parent="A2gcQvPjMNt2DV7McKa0-59" vertex="1">
          <mxGeometry x="22" y="40" width="140" height="40" as="geometry" />
        </mxCell>
        <mxCell id="A2gcQvPjMNt2DV7McKa0-61" value="" style="rounded=0;whiteSpace=wrap;html=1;" parent="A2gcQvPjMNt2DV7McKa0-59" vertex="1">
          <mxGeometry x="40" y="40" width="140" height="40" as="geometry" />
        </mxCell>
        <mxCell id="A2gcQvPjMNt2DV7McKa0-62" value="" style="rounded=0;whiteSpace=wrap;html=1;" parent="A2gcQvPjMNt2DV7McKa0-59" vertex="1">
          <mxGeometry x="60" y="40" width="140" height="40" as="geometry" />
        </mxCell>
        <mxCell id="A2gcQvPjMNt2DV7McKa0-63" value="DialogsItem" style="rounded=0;whiteSpace=wrap;html=1;" parent="A2gcQvPjMNt2DV7McKa0-59" vertex="1">
          <mxGeometry x="80" y="40" width="140" height="40" as="geometry" />
        </mxCell>
        <mxCell id="A2gcQvPjMNt2DV7McKa0-65" value="MessageContainer" style="swimlane;" parent="1" vertex="1">
          <mxGeometry x="1019" y="400" width="242" height="100" as="geometry" />
        </mxCell>
        <mxCell id="A2gcQvPjMNt2DV7McKa0-66" value="" style="rounded=0;whiteSpace=wrap;html=1;" parent="A2gcQvPjMNt2DV7McKa0-65" vertex="1">
          <mxGeometry x="22" y="40" width="140" height="40" as="geometry" />
        </mxCell>
        <mxCell id="A2gcQvPjMNt2DV7McKa0-67" value="" style="rounded=0;whiteSpace=wrap;html=1;" parent="A2gcQvPjMNt2DV7McKa0-65" vertex="1">
          <mxGeometry x="40" y="40" width="140" height="40" as="geometry" />
        </mxCell>
        <mxCell id="A2gcQvPjMNt2DV7McKa0-68" value="" style="rounded=0;whiteSpace=wrap;html=1;" parent="A2gcQvPjMNt2DV7McKa0-65" vertex="1">
          <mxGeometry x="60" y="40" width="140" height="40" as="geometry" />
        </mxCell>
        <mxCell id="A2gcQvPjMNt2DV7McKa0-69" value="Message" style="rounded=0;whiteSpace=wrap;html=1;" parent="A2gcQvPjMNt2DV7McKa0-65" vertex="1">
          <mxGeometry x="80" y="40" width="140" height="40" as="geometry" />
        </mxCell>
        <mxCell id="A2gcQvPjMNt2DV7McKa0-71" value="TextCreator" style="rounded=0;whiteSpace=wrap;html=1;fillColor=#E8FF1C;" parent="1" vertex="1">
          <mxGeometry x="1280" y="400" width="140" height="40" as="geometry" />
        </mxCell>
      </root>
    </mxGraphModel>
  </diagram>
</mxfile>
